<mxfile host="65bd71144e">
    <diagram id="zn6a-Y2OOUOOLb0l7ou-" name="第 1 页">
        <mxGraphModel dx="675" dy="931" grid="1" gridSize="10" guides="1" tooltips="1" connect="1" arrows="1" fold="1" page="1" pageScale="1" pageWidth="2339" pageHeight="3300" math="0" shadow="0">
            <root>
                <mxCell id="0"/>
                <mxCell id="1" parent="0"/>
                <mxCell id="29" value="" style="rounded=0;whiteSpace=wrap;html=1;fontFamily=Verdana;fontSize=14;fillColor=#fff2cc;strokeColor=#d6b656;" parent="1" vertex="1">
                    <mxGeometry x="30" y="70" width="247.5" height="275" as="geometry"/>
                </mxCell>
                <mxCell id="9" value="" style="edgeStyle=none;html=1;fontFamily=Verdana;fontSize=14;" parent="1" source="2" target="8" edge="1">
                    <mxGeometry relative="1" as="geometry"/>
                </mxCell>
                <mxCell id="2" value="&lt;pre style=&quot;font-size: 13px;&quot;&gt;&lt;font style=&quot;font-size: 13px;&quot; face=&quot;Verdana&quot;&gt;&lt;span style=&quot;color: rgb(42, 161, 152); background-color: rgb(253, 246, 227);&quot;&gt;mongoose.&lt;/span&gt;schema&lt;br&gt;&lt;/font&gt;&lt;/pre&gt;" style="rounded=0;whiteSpace=wrap;html=1;" parent="1" vertex="1">
                    <mxGeometry x="70" y="140" width="180" height="50" as="geometry"/>
                </mxCell>
                <mxCell id="11" value="" style="edgeStyle=none;html=1;fontFamily=Verdana;fontSize=14;" parent="1" source="3" target="10" edge="1">
                    <mxGeometry relative="1" as="geometry"/>
                </mxCell>
                <mxCell id="3" value="&lt;span style=&quot;color: rgb(42, 161, 152); background-color: rgb(253, 246, 227); font-family: Menlo, Monaco, &amp;quot;Courier New&amp;quot;, monospace; font-size: 16px;&quot;&gt;mongoose.&lt;/span&gt;model&lt;br&gt;" style="rounded=0;whiteSpace=wrap;html=1;" parent="1" vertex="1">
                    <mxGeometry x="70" y="260" width="180" height="50" as="geometry"/>
                </mxCell>
                <mxCell id="8" value="&lt;meta charset=&quot;utf-8&quot;&gt;&lt;pre style=&quot;border-color: var(--border-color); color: rgb(0, 0, 0); font-style: normal; font-variant-ligatures: normal; font-variant-caps: normal; font-weight: 400; letter-spacing: normal; orphans: 2; text-align: center; text-indent: 0px; text-transform: none; widows: 2; word-spacing: 0px; -webkit-text-stroke-width: 0px; background-color: rgb(251, 251, 251); text-decoration-thickness: initial; text-decoration-style: initial; text-decoration-color: initial; font-size: 13px;&quot;&gt;&lt;font style=&quot;border-color: var(--border-color); font-size: 13px;&quot; face=&quot;Verdana&quot;&gt;&lt;span style=&quot;border-color: var(--border-color); color: rgb(55, 65, 81);&quot; class=&quot;ne-text&quot;&gt;定义数据的结构和类型&lt;/span&gt;&lt;/font&gt;&lt;/pre&gt;" style="shape=hexagon;perimeter=hexagonPerimeter2;whiteSpace=wrap;html=1;fixedSize=1;rounded=0;" parent="1" vertex="1">
                    <mxGeometry x="440" y="125" width="170" height="80" as="geometry"/>
                </mxCell>
                <mxCell id="10" value="&lt;span style=&quot;font-size: 14px;&quot;&gt;Model 是基于 Schema 构建的，它提供了实际与数据库交互的方法&lt;/span&gt;" style="shape=hexagon;perimeter=hexagonPerimeter2;whiteSpace=wrap;html=1;fixedSize=1;rounded=0;labelBackgroundColor=none;fontColor=#CCFFFF;" parent="1" vertex="1">
                    <mxGeometry x="410" y="245" width="270" height="80" as="geometry"/>
                </mxCell>
                <mxCell id="12" value="" style="shape=flexArrow;endArrow=classic;html=1;fontFamily=Verdana;fontSize=14;exitX=0.5;exitY=1;exitDx=0;exitDy=0;entryX=0.5;entryY=0;entryDx=0;entryDy=0;" parent="1" source="2" target="3" edge="1">
                    <mxGeometry width="50" height="50" relative="1" as="geometry">
                        <mxPoint x="210" y="400" as="sourcePoint"/>
                        <mxPoint x="180" y="340" as="targetPoint"/>
                    </mxGeometry>
                </mxCell>
                <mxCell id="16" value="" style="edgeStyle=none;html=1;fontFamily=Verdana;fontSize=14;" parent="1" source="14" target="15" edge="1">
                    <mxGeometry relative="1" as="geometry">
                        <Array as="points">
                            <mxPoint x="160" y="550"/>
                        </Array>
                    </mxGeometry>
                </mxCell>
                <mxCell id="14" value="route&lt;br&gt;对外暴露url接口" style="rounded=0;whiteSpace=wrap;html=1;fontFamily=Verdana;fontSize=14;" parent="1" vertex="1">
                    <mxGeometry x="75" y="440" width="170" height="60" as="geometry"/>
                </mxCell>
                <mxCell id="19" value="" style="edgeStyle=none;html=1;fontFamily=Verdana;fontSize=14;" parent="1" source="15" target="18" edge="1">
                    <mxGeometry relative="1" as="geometry"/>
                </mxCell>
                <mxCell id="15" value="controller&lt;br&gt;负责接收和返回数据&lt;br&gt;包括处理错误" style="rounded=0;whiteSpace=wrap;html=1;fontFamily=Verdana;fontSize=14;" parent="1" vertex="1">
                    <mxGeometry x="42.5" y="580" width="235" height="60" as="geometry"/>
                </mxCell>
                <mxCell id="17" value="调用" style="text;html=1;align=center;verticalAlign=middle;resizable=0;points=[];autosize=1;strokeColor=none;fillColor=none;fontSize=14;fontFamily=Verdana;" parent="1" vertex="1">
                    <mxGeometry x="155" y="525" width="50" height="30" as="geometry"/>
                </mxCell>
                <mxCell id="18" value="server&lt;br&gt;负责操作数据库，返回所需数据" style="rounded=0;whiteSpace=wrap;html=1;fontFamily=Verdana;fontSize=14;" parent="1" vertex="1">
                    <mxGeometry x="42.5" y="720" width="235" height="60" as="geometry"/>
                </mxCell>
                <mxCell id="20" value="调用" style="text;html=1;align=center;verticalAlign=middle;resizable=0;points=[];autosize=1;strokeColor=none;fillColor=none;fontSize=14;fontFamily=Verdana;" parent="1" vertex="1">
                    <mxGeometry x="155" y="670" width="50" height="30" as="geometry"/>
                </mxCell>
                <mxCell id="27" value="" style="endArrow=classic;html=1;fontFamily=Verdana;fontSize=14;entryX=0.5;entryY=1;entryDx=0;entryDy=0;" parent="1" source="18" target="3" edge="1">
                    <mxGeometry width="50" height="50" relative="1" as="geometry">
                        <mxPoint x="277.5" y="760" as="sourcePoint"/>
                        <mxPoint x="327.5" y="710" as="targetPoint"/>
                        <Array as="points">
                            <mxPoint x="360" y="750"/>
                            <mxPoint x="360" y="450"/>
                            <mxPoint x="360" y="390"/>
                            <mxPoint x="160" y="390"/>
                        </Array>
                    </mxGeometry>
                </mxCell>
                <mxCell id="28" value="调用" style="text;html=1;align=center;verticalAlign=middle;resizable=0;points=[];autosize=1;strokeColor=none;fillColor=none;fontSize=14;fontFamily=Verdana;" parent="1" vertex="1">
                    <mxGeometry x="360" y="550" width="50" height="30" as="geometry"/>
                </mxCell>
            </root>
        </mxGraphModel>
    </diagram>
</mxfile>
